<?xml version="1.0" encoding="utf-8"?>
<!-- Generator: Adobe Illustrator 22.0.1, SVG Export Plug-In . SVG Version: 6.00 Build 0)  -->
<svg version="1.1" id="图层_1" xmlns="http://www.w3.org/2000/svg" xmlns:xlink="http://www.w3.org/1999/xlink" x="0px" y="0px"
	 viewBox="0 0 383.9 130.2" style="enable-background:new 0 0 383.9 130.2;" xml:space="preserve">
<style type="text/css">
	.st0{fill:#706060;}
	.st1{fill:#DF6737;}
</style>
<title>资源 1</title>
<g id="_编组_">
	<path id="_复合路径_" class="st0" d="M279.2,12.5h19.8c3.9,0,6,2.4,6.3,7.2v44.9c3,0.9,4.9,3.4,5.8,7.6
		c0.3,14.4-0.2,25.3-1.4,32.8c-1.2,6.9-3.1,11.2-5.8,13c-5.1,3.6-11.5,3.2-19.3-1.3c-1.8-0.9-2.4-2.1-1.8-3.6
		c0.6-1.5,1.8-1.8,3.6-0.9c6.3,3.3,11.1,4,14.4,2.2c4.5-3.6,6.4-17.5,5.8-41.8c-0.6-2.4-1.6-3.7-3.1-4h-16.6
		c-5.7,0.6-8.2-1.2-7.6-5.4l0.9-37.7c-0.1-1.1,0.6-2.1,1.7-2.2c0.2,0,0.3,0,0.5,0c1.2,0.3,1.8,1.2,1.8,2.7l-0.9,36.4
		c0,1.5,1.2,2.3,3.6,2.3h14.4v-44c0-2.7-1.1-4-3.1-4h-18.4c-1.1,0.1-2.1-0.7-2.3-1.8C277.3,13.7,278.1,12.6,279.2,12.5z M381.7,73.6
		h-53.1c-0.3,2.4-0.6,5.2-0.9,8.5c0,1.5,0.9,2.3,2.7,2.3h39.5c4.8-0.3,7.3,2.2,7.6,7.6c0.3,17.4-6.1,26.9-19.3,28.8
		c-9.9,0.6-19.8-0.6-29.2-3.6c-1.8-1.2-2.4-2.6-1.8-4.1c0.6-1.2,1.8-1.5,3.6-0.9c12.9,4.2,23.5,5.1,31.9,2.7c6.3-2.7,9.7-10,10.3-22
		c0-2.7-1.2-4-3.6-4h-41.3c-3,0-4.5-1.8-4.5-5.4l0.5-9.9h-6.4c-1.5,0-2.3-0.6-2.3-1.8c0-1.2,0.8-1.9,2.3-2.2h64.4
		c1.1,0.1,1.9,1.1,1.8,2.2S382.8,73.7,381.7,73.6L381.7,73.6z M349.2,11.6v6.3h20.5c5.4,0,8.1,2.5,8.1,7.6v27.4
		c-0.3,4.5-2.4,6.7-6.3,6.7h-49.2c-3.9,0-5.8-1.9-5.8-5.8V23.3c0-3.3,2.1-5.1,6.3-5.4h22.3v-6.3c-0.1-1.1,0.7-2.1,1.8-2.3
		C348.1,9.6,349,10.4,349.2,11.6L349.2,11.6z M320.6,40.8v11.7c-0.3,2.4,0.8,3.5,3.1,3.2h21.4V40.8H320.6z M345.2,21.9h-20.5
		c-3,0-4.3,1-4,3.1v11.7h24.6V21.9z M349.2,21.9v14.8h24.6V25.5c0-2.4-1.3-3.6-4-3.6H349.2z M349.2,40.8v14.8h21.5
		c1.5,0,2.5-1.1,3.1-3.2V40.8L349.2,40.8z"/>
	<path id="_路径_" class="st0" d="M301.9,85.8c1.5-0.4,2.3,0,2.6,1.2s-0.2,2.1-1.6,2.7l-25.3,6.4c-1.1,0.2-2.1-0.6-2.3-1.7
		s0.6-2.1,1.7-2.3"/>
</g>
<path id="_复合路径_2" class="st0" d="M158.1,15.6v44.9c-0.3,3.3,1.2,4.8,4.5,4.5h25.6c4.2,0.3,6.3,2.4,6.3,6.3v44
	c-0.2,1.1-1.1,2-2.2,2.2c-1.1-0.2-1.9-1.1-1.8-2.2V84.8h-24.7c0,12.6-3.7,23-11.2,31.4c-1.5,0.9-2.7,1-3.6,0.4
	c-1.2-1.2-1.1-2.3,0.4-3.2c6.3-7.2,9.6-16.8,9.9-28.7h-9.9c-1.5,0-2.4-0.6-2.7-1.8c0-1.2,0.8-1.9,2.3-2.2h39.5v-8.1
	c-0.1-1.9-1.7-3.5-3.6-3.6h-25.6c-4.8,0-7.2-2.2-7.2-6.7V15.2c-0.1-0.9,0.5-1.7,1.4-1.8c0.1,0,0.3,0,0.4,0
	C156.9,13.6,157.8,14.5,158.1,15.6z M236.6,17v34.1c0,3.3-1.9,4.9-5.8,4.9h-57.5c-4.2,0.3-6.1-2.1-5.8-7.2V16.1
	c0-4.2,2.4-6.4,7.2-6.7h54.8C234.2,9.3,236.6,11.9,236.6,17z M171.5,16.5v7.2h61.1v-7.2c0-2.1-1-3.1-3.1-3.1h-54.8
	C172.3,13.7,171.2,14.7,171.5,16.5L171.5,16.5z M171.5,41.7v6.7c-0.3,2.7,0.7,3.9,3.1,3.6h55.3c1.8,0.3,2.7-0.3,2.7-1.8v-8.5
	L171.5,41.7z M171.5,27.8v10.3h61.1V27.7L171.5,27.8z M250.1,14.8v47.1c-0.3,4.5-2.6,6.7-6.7,6.7h-25.6c-1.9,0.1-3.5,1.7-3.6,3.6
	v8.1h30.1c4.2-0.3,6.1,1.6,5.8,5.8v28.7c-0.3,1.1-1.1,2-2.3,2.3c-1.1-0.2-1.9-1.1-1.8-2.3V86.6c0-1.5-0.9-2.2-2.7-2.2h-29.2v30.5
	c-0.3,1.1-1.1,2-2.3,2.3c-1.1-0.2-1.9-1.1-1.8-2.3v-44c0-3.9,1.9-6,5.8-6.3h26c2.7,0.3,4-1.2,4-4.5V15.2c-0.1-1.1,0.7-2.1,1.8-2.3
	C248.9,12.8,249.9,13.6,250.1,14.8L250.1,14.8z"/>
<path class="st1" d="M118.6,22.7C106.3,8.3,88.2,0,69.3,0C50.3,0,32.3,8.3,20,22.6c-0.3-5.5-5.1-9.7-10.6-9.4S-0.3,18.3,0,23.9
	C0,24,0,24,0,24.2v81.3c0,0.1,0,0.3,0,0.4c-0.2,5.5,4.2,10.1,9.7,10.3c5.1,0.1,9.5-3.6,10.2-8.6c23.4,27.3,64.5,30.4,91.8,7
	S142.1,49.9,118.6,22.7z M57.4,94.4c16.2,7.7,35.6,0.9,43.3-15.3c2.2-3.8,7.1-5.2,11-2.9c0,0,0,0,0,0c3.9,2.2,5.2,7.2,3,11
	c-4.7,9.1-12.1,16.6-21.2,21.2c-23.9,12.2-53.2,2.7-65.4-21.2S25.4,34,49.3,21.8c23.9-12.2,53.2-2.7,65.4,21.2c2.2,3.9,0.9,8.8-3,11
	c-3.9,2.2-8.8,0.9-11-3c-3.2-6.7-8.6-12.1-15.3-15.3C69.2,28,49.8,34.9,42.1,51.1C34.3,67.3,41.2,86.7,57.4,94.4z"/>
</svg>
